<svg width="360" height="80" viewBox="0 0 360 80" fill="none" xmlns="http://www.w3.org/2000/svg">
<g filter="url(#filter0_d_88302_459)">
<line x1="4" y1="2.5" x2="356" y2="2.49997" stroke="white" stroke-width="5"/>
</g>
<g filter="url(#filter1_d_88302_459)">
<line x1="4" y1="69.5" x2="356" y2="69.5" stroke="white" stroke-width="5"/>
</g>
<path d="M66.3146 57V17.7273H80.6967C83.4837 17.7273 85.7912 18.1875 87.6193 19.108C89.4474 20.0156 90.8153 21.2493 91.723 22.8089C92.6307 24.3558 93.0845 26.1009 93.0845 28.044C93.0845 29.6804 92.7841 31.0611 92.1832 32.1861C91.5824 33.2983 90.777 34.1932 89.767 34.8707C88.7699 35.5355 87.6705 36.0213 86.4688 36.3281V36.7116C87.7727 36.7756 89.0447 37.1974 90.2848 37.9773C91.5376 38.7443 92.5732 39.8374 93.3913 41.2564C94.2095 42.6754 94.6186 44.4013 94.6186 46.4339C94.6186 48.4411 94.1456 50.2436 93.1996 51.8416C92.2663 53.4268 90.8217 54.6861 88.8658 55.6193C86.9098 56.5398 84.4105 57 81.3679 57H66.3146ZM72.2401 51.9183H80.7926C83.6307 51.9183 85.6634 51.3686 86.8906 50.2692C88.1179 49.1697 88.7315 47.7955 88.7315 46.1463C88.7315 44.9062 88.4183 43.7685 87.7919 42.733C87.1655 41.6974 86.2706 40.8729 85.1072 40.2592C83.9567 39.6456 82.5888 39.3388 81.0036 39.3388H72.2401V51.9183ZM72.2401 34.7173H80.179C81.5085 34.7173 82.7038 34.4616 83.7649 33.9503C84.8388 33.4389 85.6889 32.723 86.3153 31.8026C86.9545 30.8693 87.2741 29.7699 87.2741 28.5043C87.2741 26.8807 86.7053 25.5192 85.5675 24.4197C84.4297 23.3203 82.6847 22.7706 80.3324 22.7706H72.2401V34.7173ZM101.647 57V17.7273H126.269V22.8281H107.572V34.794H124.984V39.8757H107.572V51.8991H126.499V57H101.647ZM137.501 57H131.211L145.344 17.7273H152.19L166.323 57H160.033L148.93 24.8608H148.623L137.501 57ZM138.556 41.6207H158.959V46.6065H138.556V41.6207ZM171.994 57V17.7273H185.993C189.036 17.7273 191.56 18.2514 193.567 19.2997C195.587 20.348 197.096 21.799 198.093 23.6527C199.09 25.4936 199.589 27.6222 199.589 30.0384C199.589 32.4418 199.084 34.5575 198.074 36.3857C197.077 38.201 195.568 39.6136 193.548 40.6236C191.541 41.6335 189.016 42.1385 185.974 42.1385H175.369V37.0376H185.437C187.354 37.0376 188.914 36.7628 190.116 36.2131C191.33 35.6634 192.219 34.8643 192.781 33.8161C193.344 32.7678 193.625 31.5085 193.625 30.0384C193.625 28.5554 193.337 27.2706 192.762 26.1839C192.2 25.0973 191.311 24.2663 190.097 23.6911C188.895 23.103 187.316 22.8089 185.36 22.8089H177.92V57H171.994ZM191.381 39.2812L201.085 57H194.335L184.823 39.2812H191.381ZM219.513 57H206.799V17.7273H219.915C223.763 17.7273 227.068 18.5135 229.83 20.0859C232.591 21.6456 234.707 23.8892 236.177 26.8168C237.66 29.7315 238.401 33.228 238.401 37.3061C238.401 41.397 237.653 44.9126 236.158 47.853C234.675 50.7933 232.527 53.0561 229.714 54.6413C226.902 56.2138 223.501 57 219.513 57ZM212.724 51.8224H219.187C222.178 51.8224 224.665 51.2599 226.646 50.1349C228.628 48.9972 230.111 47.3544 231.095 45.2067C232.08 43.0462 232.572 40.4126 232.572 37.3061C232.572 34.2251 232.08 31.6108 231.095 29.4631C230.124 27.3153 228.673 25.6854 226.742 24.5732C224.812 23.4609 222.415 22.9048 219.551 22.9048H212.724V51.8224ZM251.695 17.7273V57H245.77V17.7273H251.695ZM294.439 37.3636C294.439 41.5568 293.672 45.1619 292.138 48.179C290.604 51.1832 288.501 53.4972 285.829 55.1207C283.17 56.7315 280.146 57.5369 276.758 57.5369C273.358 57.5369 270.322 56.7315 267.65 55.1207C264.991 53.4972 262.894 51.1768 261.36 48.1598C259.826 45.1428 259.059 41.544 259.059 37.3636C259.059 33.1705 259.826 29.5717 261.36 26.5675C262.894 23.5504 264.991 21.2365 267.65 19.6257C270.322 18.0021 273.358 17.1903 276.758 17.1903C280.146 17.1903 283.17 18.0021 285.829 19.6257C288.501 21.2365 290.604 23.5504 292.138 26.5675C293.672 29.5717 294.439 33.1705 294.439 37.3636ZM288.571 37.3636C288.571 34.1676 288.053 31.4766 287.018 29.2905C285.995 27.0916 284.589 25.4297 282.799 24.3047C281.022 23.1669 279.008 22.598 276.758 22.598C274.496 22.598 272.476 23.1669 270.699 24.3047C268.922 25.4297 267.515 27.0916 266.48 29.2905C265.457 31.4766 264.946 34.1676 264.946 37.3636C264.946 40.5597 265.457 43.2571 266.48 45.456C267.515 47.642 268.922 49.304 270.699 50.4418C272.476 51.5668 274.496 52.1293 276.758 52.1293C279.008 52.1293 281.022 51.5668 282.799 50.4418C284.589 49.304 285.995 47.642 287.018 45.456C288.053 43.2571 288.571 40.5597 288.571 37.3636Z" fill="white"/>
<defs>
<filter id="filter0_d_88302_459" x="0" y="-3.05176e-05" width="360" height="13" filterUnits="userSpaceOnUse" color-interpolation-filters="sRGB">
<feFlood flood-opacity="0" result="BackgroundImageFix"/>
<feColorMatrix in="SourceAlpha" type="matrix" values="0 0 0 0 0 0 0 0 0 0 0 0 0 0 0 0 0 0 127 0" result="hardAlpha"/>
<feOffset dy="4"/>
<feGaussianBlur stdDeviation="2"/>
<feComposite in2="hardAlpha" operator="out"/>
<feColorMatrix type="matrix" values="0 0 0 0 0 0 0 0 0 0 0 0 0 0 0 0 0 0 0.25 0"/>
<feBlend mode="normal" in2="BackgroundImageFix" result="effect1_dropShadow_88302_459"/>
<feBlend mode="normal" in="SourceGraphic" in2="effect1_dropShadow_88302_459" result="shape"/>
</filter>
<filter id="filter1_d_88302_459" x="0" y="67" width="360" height="13" filterUnits="userSpaceOnUse" color-interpolation-filters="sRGB">
<feFlood flood-opacity="0" result="BackgroundImageFix"/>
<feColorMatrix in="SourceAlpha" type="matrix" values="0 0 0 0 0 0 0 0 0 0 0 0 0 0 0 0 0 0 127 0" result="hardAlpha"/>
<feOffset dy="4"/>
<feGaussianBlur stdDeviation="2"/>
<feComposite in2="hardAlpha" operator="out"/>
<feColorMatrix type="matrix" values="0 0 0 0 0 0 0 0 0 0 0 0 0 0 0 0 0 0 0.25 0"/>
<feBlend mode="normal" in2="BackgroundImageFix" result="effect1_dropShadow_88302_459"/>
<feBlend mode="normal" in="SourceGraphic" in2="effect1_dropShadow_88302_459" result="shape"/>
</filter>
</defs>
</svg>
